<?xml version="1.0" encoding="utf-8"?>
<!-- Generator: Adobe Illustrator 26.0.3, SVG Export Plug-In . SVG Version: 6.00 Build 0)  -->
<svg version="1.1" id="Capa_1" xmlns="http://www.w3.org/2000/svg" xmlns:xlink="http://www.w3.org/1999/xlink" x="0px" y="0px"
	 viewBox="0 0 531 118.8" style="enable-background:new 0 0 531 118.8;" xml:space="preserve">
<style type="text/css">
	.st0{enable-background:new    ;}
	.st1{fill:#EAEAEA;}
	.st2{fill:#C62424;}
</style>
<g id="Capa_2_00000172398782929589400780000017055836361713328561_">
	<g id="Capa_3">
		<g class="st0">
			<path class="st1" d="M4.8,102V43.3L29.9,18h50.3v84H63.5V76.9H21.6V102H4.8z M63.5,60.1V34.8H38.3L21.6,51.7v8.4H63.5z"/>
			<path class="st1" d="M150.8,102L109,46v56H92.2V18H109l41.9,55.9V18h16.7v84H150.8z"/>
			<path class="st1" d="M179.5,102V18h16.8v84H179.5z"/>
			<path class="st1" d="M208.3,102V18h16.8l29.3,40.7L284.2,18h16.2v84h-16.8V45.4l-22,32.3h-14l-22.4-32.3V102H208.3z"/>
			<path class="st1" d="M312.4,102V18h71.3v16.8h-54.5v16.9h50.3v16.8h-50.3v16.7h54.5V102H312.4z"/>
		</g>
		<g class="st0">
			<path class="st1" d="M393.2,85.2H410V102h-16.8V85.2z"/>
		</g>
		<g class="st0">
			<path class="st2" d="M420.8,102V18h16.8v84H420.8z"/>
			<path class="st2" d="M457.9,102l-8.3-8.3V26.5l8.3-8.5h58.8l8.3,8.5v67.2l-8.3,8.3H457.9z M508.3,85.2V34.8h-41.9v50.4H508.3z"/>
		</g>
	</g>
</g>
</svg>
